<mxfile host="drawio-plugin" modified="2021-05-14T01:56:12.799Z" agent="5.0 (Windows NT 6.2; Win64; x64) AppleWebKit/537.36 (KHTML, like Gecko) Chrome/87.0.4280.141 Safari/537.36" etag="yVpO8CW1pn8zzuxtuuDK" version="14.6.6" type="embed"><diagram id="-1MBtov6uId_aqqONE77" name="Poke Place"><mxGraphModel dx="724" dy="567" grid="1" gridSize="10" guides="1" tooltips="1" connect="1" arrows="1" fold="1" page="1" pageScale="1" pageWidth="850" pageHeight="1100" math="0" shadow="0"><root><mxCell id="0"/><mxCell id="1" parent="0"/><object label="Sink" type="kitchen_area" max_resources="1" id="3"><mxCell style="rounded=0;whiteSpace=wrap;html=1;" parent="1" vertex="1"><mxGeometry x="710" y="220" width="60" height="130" as="geometry"/></mxCell></object><mxCell id="4" value="" style="verticalLabelPosition=bottom;html=1;verticalAlign=top;align=center;shape=mxgraph.floorplan.wall;fillColor=#000000;direction=south;" parent="1" vertex="1"><mxGeometry x="400" y="80" width="10" height="330" as="geometry"/></mxCell><object label="Stoves" type="kitchen_area" max_resources="8" id="5"><mxCell style="rounded=0;whiteSpace=wrap;html=1;" parent="1" vertex="1"><mxGeometry x="410" y="200" width="150" height="90" as="geometry"/></mxCell></object><object label="Pantry" type="kitchen_area" id="6"><mxCell style="rounded=0;whiteSpace=wrap;html=1;" parent="1" vertex="1"><mxGeometry x="410" y="80" width="240" height="60" as="geometry"/></mxCell></object><object label="Refrigerators" type="kitchen_area" id="7"><mxCell style="rounded=0;whiteSpace=wrap;html=1;" parent="1" vertex="1"><mxGeometry x="650" y="80" width="120" height="100" as="geometry"/></mxCell></object><object label="Assembly tables" type="kitchen_area" max_resources="20" id="8"><mxCell style="rounded=0;whiteSpace=wrap;html=1;" parent="1" vertex="1"><mxGeometry x="410" y="350" width="360" height="60" as="geometry"/></mxCell></object><mxCell id="9" value="" style="verticalLabelPosition=bottom;html=1;verticalAlign=top;align=center;shape=mxgraph.floorplan.wall;fillColor=#000000;direction=south;" parent="1" vertex="1"><mxGeometry x="770" y="80" width="10" height="330" as="geometry"/></mxCell><mxCell id="10" value="" style="verticalLabelPosition=bottom;html=1;verticalAlign=top;align=center;shape=mxgraph.floorplan.wall;fillColor=#000000;direction=west;" parent="1" vertex="1"><mxGeometry x="400" y="70" width="380" height="10" as="geometry"/></mxCell></root></mxGraphModel></diagram></mxfile>